<svg width="128" height="136" viewBox="0 0 128 136" fill="none" xmlns="http://www.w3.org/2000/svg">
    <g clip-path="url(#clip0_1_37)">
        <path d="M20.6922 0.0198975L117.521 21.25H128V136H18.172C14.3627 136 11.2746 132.908 11.2746 129.094V100.179L20.4888 0.320173L20.6922 0.0198975Z"
              fill="#933C00"/>
        <path d="M20.6922 0H111.685C115.492 0 118.582 3.09458 118.582 6.90625V95.625H20.6922V0Z" fill="#FF6B00"/>
        <path d="M0 108.109L20.6922 95.625V0L0 12.4844V108.109Z" fill="#FF9548"/>
        <path d="M68.5795 30.9377V43.5803H85.9693V52.9676H68.5795V74.3919H55.3483V21.399H89.1447V30.9377H68.5795Z"
              fill="white"/>
        <path d="M64.3854 107.6V123H60.7334V113.1L58.1374 122.978L58.1594 123H54.5294L51.8014 112.616V123H48.5014V107.6H53.3414L56.4434 119.964L59.6994 107.622L59.6774 107.6H64.3854ZM73.6376 123.352C72.3762 123.352 71.2762 123.11 70.3376 122.626C69.4136 122.127 68.7022 121.431 68.2036 120.536C67.7049 119.641 67.4556 118.607 67.4556 117.434V113.166C67.4556 111.993 67.6976 110.959 68.1816 110.064C68.6656 109.169 69.3769 108.48 70.3156 107.996C71.2689 107.497 72.4056 107.248 73.7256 107.248C75.5296 107.248 76.9449 107.666 77.9716 108.502C78.9982 109.338 79.5409 110.555 79.5996 112.154H76.0576C76.0136 111.465 75.8009 110.937 75.4196 110.57C75.0382 110.203 74.4882 110.02 73.7696 110.02C73.0069 110.02 72.4129 110.255 71.9876 110.724C71.5622 111.193 71.3496 111.846 71.3496 112.682V117.918C71.3496 118.754 71.5549 119.407 71.9656 119.876C72.3909 120.345 72.9849 120.58 73.7476 120.58C74.5249 120.58 75.0969 120.389 75.4636 120.008C75.8449 119.627 76.0502 119.055 76.0796 118.292H79.6656C79.4456 121.665 77.4362 123.352 73.6376 123.352ZM88.0598 107.6C89.8051 107.6 91.1911 107.989 92.2178 108.766C93.2444 109.543 93.7578 110.636 93.7578 112.044V113.54C93.7578 114.963 93.2078 116.077 92.1078 116.884C91.0078 117.676 89.5411 118.072 87.7078 118.072H86.1678V123H82.3178V107.6H88.0598ZM89.9078 112.264C89.9078 111.619 89.7171 111.135 89.3358 110.812C88.9691 110.489 88.4484 110.328 87.7738 110.328H86.1678V115.344H87.5098C89.1084 115.344 89.9078 114.647 89.9078 113.254V112.264Z"
              fill="white"/>
    </g>
    <defs>
        <clipPath id="clip0_1_37">
            <rect width="128" height="136" fill="white"/>
        </clipPath>
    </defs>
</svg>
